<svg version="1.1" xmlns="http://www.w3.org/2000/svg" xmlns:xlink="http://www.w3.org/1999/xlink"
	 width="293px" height="38px" viewBox="0 0 262 34">
<g>
	<g>
		<path d="M213.2832947,19.8405418c-2.3732147-0.0140762-2.5350037-2.3883057-6.138504-2.4096756
			c-1.8164062-0.010685-3.6660614,0.5937691-5.4317627,1.9308949l-0.0581818-0.088192
			c5.6861725-5.2984695,14.244873-0.9411106,14.2887878-8.3534727c0.0346069-5.8595066-5.3223724-6.6822357-8.8673553-6.7032657
			c-4.5411987-0.0267968-8.5614014,1.0920534-8.5865021,5.3108506c-0.0147552,2.5197458,1.6186676,3.75986,3.4935913,3.7710533
			c1.7577362,0.0103455,3.0833282-1.1831284,3.0946808-3.1167374c0.0096741-1.6407089-1.1251221-2.9659624-2.8830261-2.9763079
			c-0.9668884-0.0057664-2.0526581,0.3393693-2.6159058,1.420229l-0.0585175-0.0003386
			c0.4265442-2.7807598,2.6296539-3.7639303,4.7099609-3.7517195c2.4610596,0.0145855,4.3563385,1.5784664,4.3387146,4.5669861
			c-0.0419006,7.0606127-10.6927643,9.634799-10.7226257,14.7034616c-0.0067749,1.1425953,0.5169525,1.7606163,1.3372955,1.7655354
			c0.6153107,0.003561,0.9980927-0.345644,1.0018311-0.9901237c0.006958-1.171936-1.2825165-1.0917149-1.2753906-2.2929916
			c0.0049133-0.8495255,0.5969849-1.8715343,2.1496735-1.8623753c3.3107605,0.0195026,3.429657,4.7082615,8.9374084,4.7408257
			c4.5413818,0.0267963,6.0545502-3.1871223,6.088974-9.0174561l-0.3515778-0.002037
			C215.7216339,18.7415352,214.9240112,19.8502083,213.2832947,19.8405418z"/>
		<path d="M225.1590271,12.9669971c-2.6367798-0.0156031-5.3352814,0.4665699-6.7809448,2.1866512l-0.0585175-0.0295095
			c1.0191193-3.8617897,1.7802887-3.7985287,6.9963379-3.914196c5.0691681-0.1165152,7.4503479-1.4502487,7.8039703-6.7217526
			l-0.0291748-0.02951c-1.6742859,0.7224951-4.6351624,1.0272665-7.5650024,1.0099673
			c-2.1388245-0.0127201-4.1886139-0.2004671-5.6799011-0.7074013l-0.0295105,0.029171l-1.9961853,10.5942268l0.7019653,0.2094564
			c0.9139709-0.961462,2.3226776-1.3925848,3.8753662-1.3834267c3.3400879,0.0196733,4.236084,2.105073,4.2179413,5.1521063
			c-0.0284882,4.8341045-2.3487854,5.7872562-4.4582672,5.7748756c-2.2851868-0.0135689-4.3000336-1.1388645-4.7223358-4.0712452
			l0.0881805-0.0288334c0.4345245,0.8228989,1.2809906,1.3846149,2.3355713,1.3908901
			c1.8457489,0.0108547,3.0839996-1.2709827,3.0940094-2.9702034c0.0093231-1.5821972-1.1249542-3.0246449-3.0292358-3.0358372
			c-1.9042664-0.011364-3.7274628,1.1207161-3.7432251,3.7868252c-0.0213776,3.6036587,3.1018066,5.5849247,8.3168335,5.6157913
			c5.4494171,0.0322247,9.3586884-2.0831947,9.3851471-6.5658894
			C233.9083405,14.83531,230.1688232,12.9965076,225.1590271,12.9669971z"/>
	</g>
	<path d="M10.7587299,6.9423432C9.7423601,6.1056008,8.0908394,5.5677571,6.6932511,5.5677571
		c-4.2882481,0-6.5112786,2.6891761-6.5112786,5.4086251c0,1.8827076,1.0800121,3.0778141,2.4457998,4.1237574
		c-0.7306362,0.2092018-2.5730846,1.3443127-2.5730846,2.8383598c0,1.6735058,1.6833636,2.0621662,2.4457998,2.5102692v0.0599957
		c-1.4293878,0-2.9854667,0.9259319-2.9854667,2.8686352c0,2.4502506,2.9218245,3.7048244,7.3685212,3.7048244
		c5.2727757,0,7.654891-2.3902359,7.654891-4.6015854c0-6.2150936-10.8624916-2.8086147-10.8624916-5.3188839
		c0-0.8962097,1.3657455-0.9562263,3.0803156-0.9562263c4.1291633,0,6.2255034-2.0918875,6.2255034-5.0199652
		c0-1.1951075-0.381176-2.0918875-0.8890858-2.7491722c0.6033516-0.3583641,1.6197214-0.3583641,2.5406494-0.3583641V5.5677571
		C12.7596693,5.50774,11.5205727,5.9861388,10.7587299,6.9423432z M5.9308147,21.1060543
		c3.8115454,0,4.9864063,1.0756645,4.9864063,1.7929668c0,0.5378227-0.8572845,1.7329502-3.3985271,1.7329502
		c-3.3030424,0-4.3830547-0.5378437-4.3830547-1.7329502C3.1356392,22.2417374,3.7707908,21.1060543,5.9308147,21.1060543z
		 M6.6614513,13.456357c-1.6833639,0-2.8588605-1.1351109-2.8588605-2.5697145s1.1754966-2.5697136,2.8588605-2.5697136
		c1.4923944,0,2.6996908,1.1351109,2.6996908,2.5697136S8.1538458,13.456357,6.6614513,13.456357z"/>
	<path d="M59.3292122,15.4288034h-0.0636444l-2.8363037-9.8660707h-3.9699936l4.5196266,13.5714474
		c0.1909256,0.6275616,0.508503,1.2848663,0.508503,1.8524113c0,0.6275616-0.25457,1.0756664-0.6351509,1.822691
		c-0.4767036,0.8664856-1.2390976,1.2254009-2.6048851,1.2254009c-0.5715523,0-1.048214,0-1.6515656-0.1194401v3.0475178
		c0.4767036,0.0600185,0.9527702,0.119463,1.9054985,0.119463c3.239994,0,4.6375809-1.1951275,6.3845863-5.6475277
		l5.3050041-15.8719635h-3.9382401L59.3292122,15.4288034z"/>
	<rect x="68.8919754" y="5.5627327" width="1.8400315" height="16.0941181"/>
	<rect x="68.8919754" y="0.6180694" width="1.8400315" height="2.5702863"/>
	<path d="M91.2834015,5.574626c-2.3005371,0-3.8337631,1.1682463-5.2757874,2.7743149
		c-0.4598312-1.6935182-2.0855713-2.7743149-3.8643799-2.7743149c-2.4848022,0-3.6812439,0.963624-5.3069458,2.5994148V5.5627327
		h-1.8400726v16.0994606h1.8400726V9.8675594c0.981514-1.4603186,3.3126221-2.8909149,4.7240372-2.8909149
		c1.7787628,0,2.7603226,0.8470454,2.7603226,2.5405636v12.1449852h1.8406677V9.8675594
		c0.9815598-1.4603186,3.3126221-2.8909149,4.7234421-2.8909149c1.7793961,0,2.7609558,0.8470454,2.7609558,2.5405636v12.1449852
		h1.8400345V9.6926804C95.4857483,7.0349445,94.0749283,5.574626,91.2834015,5.574626z"/>
	<path d="M110.7979889,10.335104c0-3.3584595-1.7175827-4.760478-5.3370132-4.760478
		c-2.5766907,0-4.5397644,0.9933467-5.9199295,3.4458885l1.2264633,0.7013159
		c1.1658707-1.7523904,2.7303467-2.7451859,4.6316071-2.7451859c2.7303391,0,3.6506729,1.0219455,3.6506729,3.0372372v1.051095
		c-6.6565781,1.4014463-10.2147446,2.4735088-10.2147446,6.620141c0,2.5113926,1.9018555,3.9717331,4.3866577,3.9717331
		c2.4536057,0,3.8955841-0.7007446,5.7974319-2.1319141l0.2449875,2.1372566h1.7793579
		c-0.1842651-1.021946-0.245491-2.6246014-0.245491-3.3841972V10.335104z M108.9573212,17.7433968
		c-1.5950928,1.5477905-3.7112732,2.5114136-5.4288559,2.5114136c-1.6563492,0-2.8527908-0.934473-2.8527908-2.5988426
		c0-1.9272909,0.9815598-3.6709261,8.2816467-5.1895447V17.7433968z"/>
	<path d="M121.4461441,18.3654461c-4.325386,0-4.9383621-0.4378223-4.9383621-1.3140163
		c0-0.5549736,0.4598694-1.109375,1.4719925-1.4603195c0.7972946,0.2629223,1.5645218,0.4675446,2.5766907,0.4675446
		c3.3738937,0,6.1654663-1.5769186,6.1654663-5.3148994c0-1.4603186-0.4298477-2.3656645-1.1352615-3.1829877
		c0.6441879-0.6132731,1.7181778-0.7012954,2.5460358-0.7012954V5.2825537c-1.2576675,0-2.4229431,0.4675236-3.3432388,1.343719
		c-1.0121689-0.6424232-2.1780396-1.0516467-3.7113113-1.0516467c-3.8649673,0-6.3191605,2.1318917-6.3191605,5.4612007
		c0,1.5769186,0.859108,3.0372372,2.3004913,3.9717331c-1.1652756,0.2332001-2.392334,1.2848463-2.392334,2.5697145
		c0,1.2848454,0.9509506,1.7518177,2.1161804,1.985569v0.0583c-2.2386322,0.7887459-2.7909775,1.8987122-2.7909775,3.2127094
		c0,1.8106899,1.4720459,3.5916595,6.9627151,3.5916595c5.4907074,0,7.2694778-1.8981419,7.2694778-4.1174831
		C128.2245483,19.8257656,126.2308578,18.3654461,121.4461441,18.3654461z M116.5996552,10.8603544
		c0-2.3650913,1.564476-3.8837099,4.1405334-3.8837099c2.5766449,0,4.1411209,1.2265463,4.1411209,3.8837099
		c0,2.6285868-1.564476,3.7962608-4.1411209,3.7962608C118.5015106,14.6566153,116.5996552,13.4889412,116.5996552,10.8603544z
		 M120.6789169,25.024065c-3.3126678,0-4.845932-1.0225182-4.845932-2.5114136c0-1.3145905,1.1040115-2.5702858,4.7234802-2.5702858
		c4.7853012,0,5.8280869,1.2265453,5.8280869,2.4822636C126.384552,24.0015469,124.6663818,25.024065,120.6789169,25.024065z"/>
	<path d="M135.5482483,20.2601738c-3.6194763,0-5.1227264-3.2961731-5.1227264-6.7420826h11.1038818
		c0-4.7016058-2.0549622-7.9434652-6.3803864-7.9434652c-4.0486603,0-6.5640717,3.1835594-6.5640717,7.8851652
		c0,5.3440285,2.6378632,8.2024021,6.8096008,8.2024021c3.0365143,0,4.6009979-1.021946,6.3185272-3.7088108l-1.5026093-0.7590237
		C138.6153412,19.5886002,137.6031647,20.2601738,135.5482483,20.2601738z M135.0877838,6.9766445
		c2.7915802,0.02915,4.2330017,2.01472,4.6009979,5.1394281h-9.2632599
		C130.4561768,10.1013317,131.8363495,6.9474945,135.0877838,6.9766445z"/>
	<path d="M145.8890533,9.6338081c0-1.8398404,1.3807983-2.6571636,3.1595612-2.6571636
		c1.901886,0,3.0671234,0.8761954,4.1411591,2.2776423l1.4107819-0.9344959
		c-1.1346283-1.7518182-2.8221893-2.7451649-5.4906769-2.7451649c-2.6991425,0-5.0608521,1.2848463-5.0608521,4.1472044
		c0,5.4023294,9.3856964,2.9200649,9.3856964,7.3295994c0,1.6352177-1.5332642,3.208744-3.5576172,3.208744
		c-2.0861664,0-3.4357605-0.5252724-4.9389954-2.5697136l-1.3495483,0.9053459
		c1.5032349,2.1318913,3.7118988,3.0663872,6.1654968,3.0663872c2.8833771,0,5.521286-1.8947277,5.521286-4.6107635
		C155.2753448,11.1524267,145.8890533,13.3426189,145.8890533,9.6338081z"/>
	<path d="M36.6969566,0.726698h-3.9388313v4.8360348h-2.2866726v2.9871206h2.2866726v9.5624647
		c0,2.2106285,1.1436539,3.5847702,4.0654793,3.5847702c1.0800095,0,2.0327377-0.1194191,3.112751-0.2388401v-3.0471153
		c-0.5714684,0.1194191-1.2066612,0.2988338-1.8105621,0.2988338c-0.9846153,0-1.4288368-0.2394104-1.4288368-1.075325V8.5498533
		h3.239399V5.5627327h-3.239399V0.726698z"/>
	<path d="M47.5482521,0.726698h-3.9382362v4.8360348h-2.2866745v2.9871206h2.2866745v9.5624647
		c0,2.2106285,1.1436539,3.5847702,4.0654793,3.5847702c1.0800133,0,2.0327377-0.1194191,3.112751-0.2388401v-3.0471153
		c-0.5715103,0.1194191-1.2072525,0.2988338-1.8106041,0.2988338c-0.9845695,0-1.42939-0.2394104-1.42939-1.075325V8.5498533
		h3.239994V5.5627327h-3.239994V0.726698z"/>
	<path d="M158.2733612,2.3692942c0-0.4650429-0.2583923-0.717132-0.8390961-0.717132h-0.990509v2.5906806h0.3518372V3.0895848
		h0.4976044l0.7052917,1.1532578h0.3988953l-0.7197876-1.1532578C157.973175,3.0264301,158.2733612,2.8260691,158.2733612,2.3692942
		z M157.2006836,2.7970462h-0.4050903V1.9456549h0.5631561c0.2697449,0,0.5636749,0.0505619,0.5636749,0.417449
		C157.9224243,2.8136883,157.541153,2.7970462,157.2006836,2.7970462z"/>
	<path d="M157.2549591,0.7655364c-1.2070465,0-2.1782532,0.9806478-2.1782532,2.1813302
		c0,1.1956367,0.9712067,2.1753092,2.1782532,2.1753092c1.2001648,0,2.1746063-0.9796724,2.1746063-2.1753092
		C159.4295654,1.7461842,158.4551239,0.7655364,157.2549591,0.7655364z M157.2549591,4.8286619
		c-1.0473175,0-1.829483-0.8349612-1.829483-1.8817954c0-1.0529397,0.7821655-1.8878163,1.829483-1.8878163
		c1.0447693,0,1.8248444,0.8348767,1.8243866,1.8878163C159.0798035,3.9937007,158.2997284,4.8286619,157.2549591,4.8286619z"/>
	<path d="M22.5797157,5.5748167c-4.4784985,0-7.1782312,3.1372585-7.1782312,8.0680571
		c0,4.9302273,2.6997328,8.068079,6.9873037,8.068079c3.1764355,0,5.3994656-0.9562244,6.9243393-3.1675739l-2.85886-1.6735058
		c-0.9845276,1.0756645-1.841814,1.8529835-3.6842194,1.8529835c-1.8424473,0-3.3667278-1.2551441-3.4303265-4.4821424h9.9734058
		v-1.5243216C29.3131275,8.9812727,26.899128,5.5450945,22.5797157,5.5748167z M19.3397217,11.7304449
		c0.0635986-2.1513329,1.2703018-3.406456,3.1763515-3.406456c1.9054546,0,3.112751,1.2551231,3.1758003,3.406456H19.3397217z"/>
	<rect x="179.3724823" y="-0.4147728" width="0.6946811" height="34.0230942"/>
	<g>
		<path d="M239.1381683,8.7111197v2.3153801h-1.4128113V8.7111197l-2.2066956-3.7741604h1.2456055
			c0.1226044,0,0.2198639,0.0287018,0.2925873,0.0855484c0.0721741,0.0574036,0.1306915,0.1304121,0.1752777,0.2195835
			l0.8610687,1.7719941c0.0696564,0.1421161,0.1337433,0.2730856,0.1922607,0.3929095
			c0.0585327,0.1198235,0.1100769,0.2382536,0.1546631,0.3552904c0.0417938-0.1198235,0.0919647-0.2396469,0.1504822-0.3594704
			s0.1212158-0.2494001,0.1880951-0.3887296l0.8526917-1.7719941c0.0167236-0.0362258,0.039566-0.0724516,0.0688324-0.1086774
			c0.0292511-0.0362258,0.0626984-0.0691075,0.1003113-0.0983667c0.0376282-0.0292592,0.0808105-0.0526667,0.1295776-0.0710578
			c0.0487671-0.0178342,0.1025543-0.02703,0.1610718-0.02703h1.2536774L239.1381683,8.7111197z"/>
		<path d="M245.6833191,4.9369593v1.086771h-2.4995728v1.4208832h1.9143829v1.0449724h-1.9143829v1.4501429h2.4995728v1.086771
			h-3.9204559V4.9369593H245.6833191z"/>
		<path d="M252.1529388,11.0264997h-1.0951233c-0.1226044,0-0.2234802-0.0284233-0.3029022-0.0855484
			s-0.1345978-0.1304131-0.1649628-0.2195835l-0.3594818-1.0616922h-2.3156586l-0.3594666,1.0616922
			c-0.0278625,0.0780239-0.0821991,0.1485252-0.162735,0.2112236c-0.0810852,0.0626984-0.1797333,0.0939083-0.2967682,0.0939083
			h-1.1035004l2.357193-6.0895405h1.446228L252.1529388,11.0264997z M248.2408447,8.6985798h1.6636047l-0.5601044-1.6677752
			c-0.0362244-0.1058908-0.0788727-0.2304511-0.1276245-0.3739605c-0.0487671-0.1435099-0.0966949-0.2987227-0.1440735-0.4659185
			c-0.0445862,0.1699824-0.0905609,0.3274245-0.1379395,0.4720488c-0.0473633,0.1449027-0.0919495,0.2702994-0.1337585,0.3761902
			L248.2408447,8.6985798z"/>
		<path d="M254.0587006,8.773818v2.2526817h-1.4125214V4.9369593h1.9809875c0.4402771,0,0.8156281,0.0454211,1.1263275,0.1357069
			c0.3107147,0.0905643,0.5642853,0.2167969,0.7607574,0.3784194c0.1964417,0.161622,0.3391113,0.3525038,0.4282837,0.5726447
			c0.0891724,0.2201405,0.1337585,0.4595089,0.1337585,0.7186623c0,0.1978478-0.0264587,0.3845496-0.0794067,0.5601048
			s-0.1315308,0.3380136-0.2360229,0.4870963s-0.2326965,0.2820034-0.384552,0.3990402
			c-0.151886,0.1170368-0.3265991,0.2131739-0.5244446,0.2884121c0.0947418,0.0473719,0.183075,0.1058903,0.2652893,0.1755552
			s0.1540833,0.1546564,0.2153931,0.2549734l1.2955017,2.1189251h-1.2787781c-0.2368469,0-0.4068451-0.0891714-0.5099487-0.2675133
			l-1.0115356-1.7678137c-0.0445862-0.0780249-0.0966949-0.1337566-0.156601-0.1671963
			c-0.059906-0.0334387-0.1443481-0.0501585-0.2530212-0.0501585H254.0587006z M254.0587006,7.7999043h0.5684662
			c0.192276,0,0.355835-0.0242434,0.491272-0.073009c0.1348724-0.0487652,0.2457733-0.1164794,0.3321533-0.2028637
			c0.0863953-0.0863843,0.1490936-0.1872592,0.1880951-0.3029027c0.0390167-0.1156435,0.0585327-0.2404828,0.0585327-0.3742394
			c0-0.2675128-0.0872345-0.4762287-0.2613831-0.6267047c-0.1741638-0.150476-0.443634-0.2257137-0.80867-0.2257137h-0.5684662
			V7.7999043z"/>
		<path d="M261.5986633,6.1742063c-0.0418091,0.0668778-0.0858459,0.1170368-0.1318054,0.150476
			c-0.04599,0.0334392-0.105072,0.0501585-0.1775208,0.0501585c-0.0640869,0-0.1331787-0.0203419-0.2070312-0.0607476
			s-0.1574402-0.0855484-0.2507935-0.1357069c-0.0933533-0.050159-0.1997986-0.0955801-0.3196106-0.1359859
			c-0.1198425-0.0404058-0.2563782-0.0604692-0.4096375-0.0604692c-0.26474,0-0.461731,0.0562892-0.5913086,0.1691461
			c-0.1295776,0.1128573-0.194519,0.2652836-0.194519,0.4575586c0,0.1228886,0.0390015,0.2243209,0.1170349,0.3051319
			s0.1805725,0.150476,0.307373,0.2089944c0.12677,0.0585184,0.271698,0.1122994,0.4346924,0.1610651
			c0.1630249,0.0487652,0.3293762,0.1031036,0.4993591,0.1630154s0.3363342,0.1301341,0.4993591,0.2109451
			c0.1630249,0.0808115,0.3079224,0.1839151,0.4347229,0.3093119c0.12677,0.1253963,0.2293396,0.277823,0.3073425,0.4575582
			c0.0777588,0.1797352,0.1170349,0.3965321,0.1170349,0.6501122c0,0.2814465-0.0487671,0.5447788-0.1462708,0.7897205
			c-0.0975342,0.2452202-0.2391052,0.4592304-0.424408,0.6417522s-0.4138184,0.3260307-0.6852417,0.4305286
			c-0.2716675,0.1042185-0.5804443,0.1566067-0.9259644,0.1566067c-0.1894836,0-0.3823242-0.0195065-0.5787964-0.0585184
			c-0.1964417-0.0390129-0.3864746-0.0939083-0.5704041-0.1649666c-0.1838989-0.0710583-0.3566895-0.1554918-0.5183105-0.2530231
			c-0.1616211-0.0975304-0.3023376-0.2062073-0.4221497-0.3260307l0.4179688-0.6604223
			c0.0306702-0.0501585,0.0738525-0.0902863,0.1295776-0.1212168c0.0557251-0.0303745,0.1156616-0.0457001,0.1797485-0.0457001
			c0.0835876,0,0.1677551,0.0264721,0.2527466,0.0791388c0.0849915,0.0532246,0.1811218,0.111743,0.2883911,0.1755552
			c0.1072998,0.0643702,0.2304688,0.1228886,0.3697815,0.1755552c0.1393433,0.0529461,0.3037415,0.0794182,0.4932251,0.0794182
			c0.2563782,0,0.4556274-0.0562887,0.5977478-0.1691456c0.1421204-0.1128578,0.2131653-0.2917566,0.2131653-0.5369768
			c0-0.1421165-0.0390015-0.25776-0.1170349-0.3469305c-0.0780334-0.0891714-0.1802979-0.1630163-0.3070984-0.2215347
			c-0.12677-0.0585184-0.2711182-0.1100702-0.4327393-0.1546555s-0.3274231-0.0941868-0.497406-0.1485252
			s-0.3357849-0.1212168-0.4971313-0.200635c-0.1616211-0.0794182-0.3059692-0.1839151-0.4327698-0.3132129
			c-0.12677-0.1295767-0.2290344-0.2911987-0.3070679-0.4848671s-0.1170349-0.4327579-0.1170349-0.71699
			c0-0.2282219,0.0459595-0.4511495,0.1379395-0.6685038c0.0919495-0.2173543,0.2271118-0.4110222,0.405426-0.5810046
			c0.1783447-0.169982,0.3970947-0.3056889,0.65625-0.4076781c0.2588806-0.1014323,0.5556641-0.1524267,0.8900452-0.1524267
			c0.1867065,0,0.3683777,0.0144901,0.5456238,0.0437493c0.1766663,0.0292592,0.344696,0.0727301,0.50354,0.1295767
			c0.1588135,0.0571251,0.3070679,0.1253967,0.4450073,0.2048144c0.1379395,0.0794182,0.2613831,0.169425,0.3700562,0.269742
			L261.5986633,6.1742063z"/>
	</g>
</g>
</svg>
